<?xml version="1.0" encoding="UTF-8"?>
<!DOCTYPE svg PUBLIC "-//W3C//DTD SVG 1.1//EN" "http://www.w3.org/Graphics/SVG/1.1/DTD/svg11.dtd">
<!-- Creator: CorelDRAW -->
<svg xmlns="http://www.w3.org/2000/svg" xml:space="preserve" width="174.186mm" height="76.1484mm" style="shape-rendering:geometricPrecision; text-rendering:geometricPrecision; image-rendering:optimizeQuality; fill-rule:evenodd; clip-rule:evenodd"
viewBox="0 0 169.715 74.1941"
 xmlns:xlink="http://www.w3.org/1999/xlink">
 <defs>
  <style type="text/css">
   <![CDATA[
    .fil0 {fill:#495677}
   ]]>
  </style>
 </defs>
 <g id="Camada_x0020_1">
  <metadata id="CorelCorpID_0Corel-Layer"/>
  <path class="fil0" d="M25.6403 30.2366l-10.9319 4.29585 0.196524 10.7225 0.832473 -0.455307 -0.104059 -9.49403 4.11033 -1.64585 0.711168 9.75671 0.867062 -0.173334 -0.242707 -9.9166 3.2877 -1.78245 1.27336 -1.30746zm1.02354 -1.60454l-13.5973 5.11575 0.485707 13.0346 14.0829 -3.44837 -0.971218 -14.702zm88.9376 -0.0507629l-39.9522 -22.2985 -46.0988 10.4444 -25.9951 11.2762 0.924255 4.62147 4.59848 -0.797299 2.44929 36.9366 21.8706 -0.0231892 -3.89335 -48.2936 2.70749 -0.601945 3.84814 -0.855954 40.5133 -9.00959 33.1239 18.301 5.90389 0.300388zm-65.8257 5.37921c-0.526336,-0.503927 -1.06027,-0.880995 -1.60912,-1.1274 -0.544946,-0.250015 -1.1238,-0.373268 -1.72838,-0.373268 -0.940917,0 -1.69876,0.291229 -2.26991,0.869887 -0.571351,0.578658 -0.85878,1.3515 -0.85878,2.31454 0,0.940917 0.272619,1.69135 0.821463,2.2513 0.544946,0.563751 1.28047,0.843678 2.19878,0.843678 0.552546,0 1.1163,-0.119356 1.68745,-0.354561 0.574956,-0.238907 1.19843,-0.61237 1.87803,-1.1313l-0.18678 6.02569c-0.627083,0.253912 -1.25426,0.447902 -1.88164,0.574956 -0.62718,0.126859 -1.25426,0.190385 -1.88164,0.190385 -0.780151,0 -1.53049,-0.085839 -2.25101,-0.261414 -0.724419,-0.175381 -1.37411,-0.42559 -1.96017,-0.746634 -1.41483,-0.813863 -2.48261,-1.84802 -3.20683,-3.09498 -0.728024,-1.24676 -1.09028,-2.6766 -1.09028,-4.29712 0,-1.19454 0.20539,-2.30333 0.619873,-3.32629 0.410585,-1.01925 1.01175,-1.91896 1.7958,-2.6992 0.795156,-0.787848 1.71717,-1.38512 2.76263,-1.7882 1.04897,-0.40698 2.18017,-0.608668 3.39741,-0.608668 0.649395,0 1.28798,0.0671318 1.91876,0.201688 0.63098,0.134361 1.24696,0.335951 1.84432,0.608473l0 5.92845zm8.04919 3.83801l2.39307 0 -0.489117 -1.81451c-0.242707,-0.918312 -0.40698,-1.62773 -0.492819,-2.12415 -0.0894441,-0.492819 -0.141863,-0.959624 -0.164176,-1.39632l-0.0972388 0c-0.0223123,0.436698 -0.0783366,0.903502 -0.164176,1.39632 -0.0894441,0.496424 -0.253912,1.20584 -0.492819,2.12415l-0.492722 1.81451zm-7.6348 5.8203l5.70825 -16.0123 6.41035 0 5.5999 16.0123 -6.18996 0 -0.515034 -2.01239 -4.34193 0 -0.492819 2.01239 -6.17875 0zm17.1511 -1.36631l1.83682 -4.4838c0.825068,0.574956 1.5567,0.996746 2.20278,1.26177 0.64579,0.265117 1.25056,0.399478 1.81061,0.399478 0.395775,0 0.705419,-0.0747316 0.929517,-0.223902 0.227702,-0.149366 0.339751,-0.350956 0.339751,-0.608668 0,-0.444297 -0.563848,-0.783854 -1.69496,-1.01545 -0.365863,-0.0821365 -0.64959,-0.141863 -0.854785,-0.186683 -1.19483,-0.291034 -2.10944,-0.810063 -2.74402,-1.55309 -0.634683,-0.742834 -0.952121,-1.66875 -0.952121,-2.77744 0,-1.72116 0.615975,-3.12119 1.84793,-4.20007 1.23215,-1.07898 2.84857,-1.62022 4.84586,-1.62022 0.922307,0 1.82571,0.119356 2.71421,0.362063 0.888595,0.238907 1.7883,0.604771 2.6919,1.09398l-1.75098 4.18867c-0.552644,-0.40698 -1.10899,-0.720522 -1.66894,-0.937117 -0.556249,-0.212698 -1.09759,-0.321044 -1.62383,-0.321044 -0.399673,0 -0.709414,0.0671318 -0.929809,0.201785 -0.2202,0.134361 -0.328351,0.324649 -0.328351,0.563556 0,0.4518 0.798858,0.851278 2.39677,1.19103 0.253912,0.0596294 0.4518,0.104449 0.589766,0.134361 1.10149,0.246312 1.96748,0.754136 2.60216,1.51948 0.634683,0.765439 0.952121,1.69116 0.952121,2.77754 0,1.76959 -0.63858,3.21814 -1.91905,4.34193 -1.28047,1.1238 -2.94552,1.68375 -4.99523,1.68375 -1.04907,0 -2.09804,-0.149366 -3.14711,-0.447902 -1.05297,-0.298731 -2.10184,-0.746731 -3.151,-1.344zm20.6492 -4.45398l2.39316 0 -0.489214 -1.81451c-0.242707,-0.918312 -0.406883,-1.62773 -0.492722,-2.12415 -0.0895415,-0.492819 -0.141863,-0.959624 -0.164273,-1.39632l-0.0971413 0c-0.0223123,0.436698 -0.0783366,0.903502 -0.164273,1.39632 -0.0894441,0.496424 -0.253815,1.20584 -0.492722,2.12415l-0.492819 1.81451zm-7.6347 5.8203l5.70825 -16.0123 6.41026 0 5.5999 16.0123 -6.18986 0 -0.515132 -2.01239 -4.34193 0 -0.492819 2.01239 -6.17866 0zm24.4364 -2.38664c0.687297,-0.00399478 1.18898,-0.138161 1.50701,-0.402888 0.315977,-0.262584 0.473917,-0.677456 0.473917,-1.24023 0,-0.551085 -0.151996,-0.961865 -0.454236,-1.23244 -0.304188,-0.270476 -0.768167,-0.404837 -1.39437,-0.404837l-0.132315 0 0 3.2804zm-3.01966 2.58716l0 -8.47059 2.46478 0c0.782002,0 1.45157,0.0434554 2.0044,0.130366 0.553131,0.0870082 1.00532,0.221174 1.35092,0.402888 0.734747,0.385155 1.29577,0.896682 1.68862,1.53253 0.391099,0.636047 0.58655,1.36086 0.58655,2.17452 0,0.811622 -0.195452,1.53253 -0.584504,2.16459 -0.389052,0.631954 -0.951829,1.14348 -1.69067,1.53253 -0.357387,0.185514 -0.813668,0.321921 -1.36466,0.406688 -0.55089,0.0850596 -1.29148,0.126469 -2.21574,0.126469l-2.23971 0zm13.6035 -2.62087c0.428611,0 0.772259,-0.146053 1.0328,-0.436308 0.26083,-0.292301 0.391099,-0.677456 0.391099,-1.16131 0,-0.485707 -0.130269,-0.874759 -0.391099,-1.17115 -0.260538,-0.29425 -0.604186,-0.442446 -1.0328,-0.442446 -0.428513,0 -0.77411,0.148197 -1.03699,0.446343 -0.262584,0.296296 -0.392852,0.685348 -0.392852,1.16725 0,0.483855 0.130269,0.869011 0.392852,1.16131 0.262876,0.290255 0.608473,0.436308 1.03699,0.436308zm4.53047 -1.59762c0,0.620165 -0.110587,1.19882 -0.329813,1.73198 -0.219226,0.5353 -0.541146,1.01321 -0.965665,1.43393 -0.424616,0.412631 -0.914415,0.728706 -1.46745,0.947834 -0.553033,0.219226 -1.14348,0.329813 -1.76754,0.329813 -0.632052,0 -1.22445,-0.110587 -1.77553,-0.329813 -0.552838,-0.219128 -1.04283,-0.539003 -1.47125,-0.959819 -0.418672,-0.408734 -0.738547,-0.8808 -0.953875,-1.41191 -0.215426,-0.533449 -0.323967,-1.11386 -0.323967,-1.74202 0,-0.62796 0.108541,-1.21071 0.323967,-1.74776 0.215328,-0.535203 0.535203,-1.00931 0.953875,-1.41805 0.424616,-0.414678 0.912271,-0.732701 1.4654,-0.94988 0.550987,-0.219323 1.14543,-0.327962 1.78138,-0.327962 0.635852,0 1.23029,0.108638 1.78138,0.327962 0.553033,0.21718 1.04273,0.535203 1.47125,0.94988 0.414872,0.412826 0.732896,0.88879 0.950075,1.42399 0.219128,0.537249 0.327767,1.11766 0.327767,1.74182zm-74.5957 20.8385l2.3347 0 -0.477132 -1.77008c-0.236666,-0.895805 -0.397042,-1.58788 -0.480835,-2.07241 -0.0873005,-0.480543 -0.138453,-0.936045 -0.160181,-1.36202l-0.0948029 0c-0.0219226,0.42598 -0.0764854,0.881482 -0.160083,1.36202 -0.0874954,0.484537 -0.247774,1.17661 -0.480835,2.07241l-0.480835 1.77008zm-7.44822 5.67824l5.56882 -15.6212 6.25368 0 5.4632 15.6212 -6.03864 0 -0.502758 -1.96309 -4.23573 0 -0.480835 1.96309 -6.02773 0zm18.149 0l0 -15.6212 6.71249 0c2.36004,0 4.08637,0.45521 5.17908,1.36592 1.09282,0.91042 1.63893,2.35273 1.63893,4.33034 0,1.84305 -0.491553,3.19056 -1.47144,4.03931 -0.983398,0.848549 -2.54204,1.27463 -4.67642,1.27463l-1.75926 0 0 4.61105 -5.62338 0zm5.6453 -11.2798l0 2.60421 0.874174 0c0.531695,0 0.943352,-0.113023 1.22727,-0.335074 0.284116,-0.225851 0.426175,-0.542705 0.426175,-0.957967 0,-0.41156 -0.145663,-0.732116 -0.436892,-0.96508 -0.291521,-0.229554 -0.695774,-0.346084 -1.21656,-0.346084l-0.874174 0zm15.3334 -0.320459l0 3.05211 0.874174 0c0.535398,0 0.943352,-0.131048 1.23098,-0.389637 0.287819,-0.258784 0.433482,-0.630201 0.433482,-1.11464 0,-0.49886 -0.145663,-0.881287 -0.433482,-1.14718 -0.287624,-0.265896 -0.695579,-0.400647 -1.23098,-0.400647l-0.874174 0zm-5.50685 11.6003l0 -15.6212 7.06579 0c2.04689,0 3.61294,0.451507 4.69474,1.35491 1.08171,0.90321 1.62081,2.20716 1.62081,3.90436 0,1.11084 -0.273204,2.02516 -0.815909,2.74256 -0.546408,0.721204 -1.27843,1.14007 -2.20356,1.26021l4.17026 6.3592 -6.29363 0 -2.73165 -5.15356 0 5.15356 -5.50685 0zm15.6429 0l0 -15.6212 10.4458 0 0 4.23573 -4.93881 0 0 1.50438 4.48 0 0 4.00277 -4.48 0 0 1.64254 5.06635 0 0 4.23583 -10.5733 0zm12.846 0l0 -15.6212 5.50685 0 4.85502 8.17293c-0.0654754,-0.360407 -0.109126,-0.764757 -0.134751,-1.20555 -0.0255276,-0.440595 -0.0363427,-1.01604 -0.0363427,-1.73003l0 -5.23735 5.40854 0 0 15.6212 -5.5469 0 -4.80406 -8.11115c0.0581679,0.349689 0.098408,0.724809 0.127443,1.12906 0.0292301,0.400647 0.0436503,0.848647 0.0436503,1.3477l0 5.63439 -5.41945 0zm24.0381 -4.77123c1.26751,-0.00730752 2.19265,-0.254886 2.779,-0.743029 0.582848,-0.48444 0.874077,-1.2492 0.874077,-2.28735 0,-1.01604 -0.280414,-1.77368 -0.837539,-2.27254 -0.561023,-0.499055 -1.41688,-0.746731 -2.57157,-0.746731l-0.243974 0 0 6.04965zm-5.56882 4.77123l0 -15.6212 4.54557 0c1.44221,0 2.67679,0.0800904 3.69663,0.240466 1.01994,0.160181 1.85387,0.40776 2.49118,0.742834 1.35501,0.710389 2.38927,1.65355 3.11417,2.82645 0.721204,1.17271 1.08161,2.5094 1.08161,4.00988 0,1.49707 -0.360407,2.82645 -1.0781,3.99186 -0.717501,1.1656 -1.75536,2.10895 -3.11768,2.82635 -0.659236,0.342382 -1.50048,0.593663 -2.51671,0.750336 -1.01604,0.156478 -2.38196,0.233061 -4.08637,0.233061l-4.13031 0zm17.2858 0l0 -15.6212 10.4458 0 0 4.23573 -4.93891 0 0 1.50438 4.48 0 0 4.00277 -4.48 0 0 1.64254 5.06635 0 0 4.23583 -10.5732 0zm18.3529 -11.6003l0 3.05211 0.874077 0c0.535398,0 0.943352,-0.131048 1.23098,-0.389637 0.287819,-0.258784 0.433482,-0.630201 0.433482,-1.11464 0,-0.49886 -0.145663,-0.881287 -0.433482,-1.14718 -0.287624,-0.265896 -0.695579,-0.400647 -1.23098,-0.400647l-0.874077 0zm-5.50695 11.6003l0 -15.6212 7.06589 0c2.04679,0 3.61284,0.451507 4.69464,1.35491 1.08181,0.90321 1.62081,2.20716 1.62081,3.90436 0,1.11084 -0.273204,2.02516 -0.815909,2.74256 -0.54631,0.721204 -1.27843,1.14007 -2.20356,1.26021l4.17026 6.3592 -6.29363 0 -2.73155 -5.15356 0 5.15356 -5.50695 0zm-148.573 -66.1176l169.715 0 0 74.1941 -169.715 0 0 -74.1941z"/>
 </g>
</svg>
