<?xml version="1.0" encoding="UTF-8" standalone="no"?>
<svg
   xmlns:dc="http://purl.org/dc/elements/1.1/"
   xmlns:cc="http://creativecommons.org/ns#"
   xmlns:rdf="http://www.w3.org/1999/02/22-rdf-syntax-ns#"
   xmlns:svg="http://www.w3.org/2000/svg"
   xmlns="http://www.w3.org/2000/svg"
   id="svg8"
   version="1.1"
   viewBox="0 0 184.38153 125.67708"
   >
  <style
     id="style66">
.touchable:hover {
  cursor: pointer;
}
</style>
  <defs
     id="defs2" />
  <metadata
     id="metadata5">
    <rdf:RDF>
      <cc:Work
         rdf:about="">
        <dc:format>image/svg+xml</dc:format>
        <dc:type
           rdf:resource="http://purl.org/dc/dcmitype/StillImage" />
        <dc:title></dc:title>
      </cc:Work>
    </rdf:RDF>
  </metadata>
  <g
     transform="translate(-0.06253526,-171.32292)"
     id="layer1">
    <rect
       ry="0"
       y="171.32292"
       x="0.062535256"
       height="125.67708"
       width="184.38152"
       id="rect10"
       style="fill:#ffccaa;fill-opacity:1;stroke-width:0.26458332" />
    <g
       id="text14"
       style="font-style:normal;font-weight:normal;font-size:10.58333302px;line-height:6.61458302px;font-family:sans-serif;letter-spacing:0px;word-spacing:0px;fill:#000000;fill-opacity:1;stroke:none;stroke-width:0.26458332"
       aria-label="Quarto 2">
      <path
         id="path51"
         style="stroke-width:0.26458332"
         d="m 76.584991,290.34511 q -0.310059,0.0775 -0.61495,0.10852 -0.299723,0.0362 -0.614949,0.0362 -0.89917,0 -1.44694,-0.49609 -0.542603,-0.49093 -0.589112,-1.41077 -0.124023,0.0207 -0.242879,0.0258 -0.113688,0.0103 -0.222208,0.0103 -0.81132,0 -1.477946,-0.26872 -0.661459,-0.26872 -1.126547,-0.78032 -0.465087,-0.51159 -0.718302,-1.25573 -0.248047,-0.74414 -0.248047,-1.70016 0,-0.94051 0.248047,-1.68465 0.248047,-0.74931 0.72347,-1.28157 0.454753,-0.50643 1.126546,-0.77515 0.676961,-0.26872 1.472779,-0.26872 0.826822,0 1.483113,0.27389 0.661458,0.26871 1.121379,0.76998 0.470255,0.51676 0.718302,1.26607 0.253215,0.74931 0.253215,1.70015 0,1.41077 -0.578777,2.37712 -0.573608,0.96635 -1.545125,1.35392 0.02067,0.58911 0.279053,0.91467 0.258382,0.32557 0.940511,0.32557 0.211873,0 0.501261,-0.0672 0.294556,-0.062 0.418579,-0.11369 h 0.139527 z m -1.219564,-5.73092 q 0,-1.49861 -0.671794,-2.30993 -0.671793,-0.81649 -1.834513,-0.81649 -1.173055,0 -1.844848,0.81649 -0.666626,0.81132 -0.666626,2.30993 0,1.51412 0.682128,2.32027 0.682129,0.80099 1.829346,0.80099 1.147217,0 1.824178,-0.80099 0.682129,-0.80615 0.682129,-2.32027 z" />
      <path
         id="path53"
         style="stroke-width:0.26458332"
         d="m 82.760324,288.45892 h -0.971517 v -0.64079 q -0.490926,0.38757 -0.940511,0.59428 -0.449585,0.20671 -0.992188,0.20671 -0.909505,0 -1.415934,-0.55294 -0.506429,-0.55811 -0.506429,-1.63298 v -3.74654 h 0.971517 v 3.28662 q 0,0.43925 0.04134,0.75448 0.04134,0.31006 0.1757,0.53227 0.139527,0.22737 0.361735,0.33072 0.222209,0.10336 0.645956,0.10336 0.377238,0 0.821655,-0.19637 0.449585,-0.19637 0.837158,-0.50126 v -4.30982 h 0.971517 z" />
      <path
         id="path55"
         style="stroke-width:0.26458332"
         d="m 89.157866,288.45892 h -0.966349 v -0.61495 q -0.129191,0.0878 -0.3514,0.24805 -0.217041,0.15503 -0.423746,0.24804 -0.24288,0.11886 -0.558106,0.19637 -0.315226,0.0827 -0.738973,0.0827 -0.780314,0 -1.322917,-0.51677 -0.542602,-0.51676 -0.542602,-1.31775 0,-0.65629 0.279053,-1.05936 0.28422,-0.40825 0.806152,-0.64079 0.5271,-0.23255 1.266073,-0.31523 0.738972,-0.0827 1.586466,-0.12402 v -0.14986 q 0,-0.33073 -0.118856,-0.54777 -0.113688,-0.21704 -0.330729,-0.34107 -0.206706,-0.11885 -0.496094,-0.16019 -0.289388,-0.0414 -0.604614,-0.0414 -0.382406,0 -0.852661,0.10336 -0.470256,0.0982 -0.971517,0.28938 h -0.05168 v -0.98701 q 0.28422,-0.0775 0.821655,-0.17054 0.537435,-0.093 1.059367,-0.093 0.609782,0 1.059367,0.10335 0.454752,0.0982 0.785481,0.34106 0.325562,0.23771 0.496094,0.61495 0.170532,0.37724 0.170532,0.93535 z m -0.966349,-1.4211 v -1.60714 q -0.444417,0.0258 -1.049032,0.0775 -0.599446,0.0517 -0.950846,0.14987 -0.418579,0.11885 -0.676961,0.37207 -0.258382,0.24804 -0.258382,0.68729 0,0.4961 0.299723,0.74931 0.299723,0.24805 0.914673,0.24805 0.511596,0 0.935343,-0.19637 0.423747,-0.20154 0.785482,-0.48059 z" />
      <path
         id="path57"
         style="stroke-width:0.26458332"
         d="m 94.640733,283.74603 h -0.0517 q -0.21704,-0.0517 -0.42375,-0.0724 -0.20154,-0.0258 -0.48059,-0.0258 -0.44959,0 -0.86816,0.20154 -0.41858,0.19637 -0.80616,0.5116 v 4.09794 h -0.97151 v -5.77226 h 0.97151 v 0.85266 q 0.57878,-0.46509 1.01803,-0.65629 0.44442,-0.19637 0.90434,-0.19637 0.25321,0 0.3669,0.0155 0.11369,0.0103 0.34106,0.0465 z" />
      <path
         id="path59"
         style="stroke-width:0.26458332"
         d="m 98.562973,288.40724 q -0.27388,0.0724 -0.59944,0.11886 -0.3204,0.0465 -0.57361,0.0465 -0.88367,0 -1.34359,-0.47543 -0.45992,-0.47542 -0.45992,-1.52445 v -3.06958 h -0.65629 v -0.81649 h 0.65629 v -1.65881 h 0.97152 v 1.65881 h 2.00504 v 0.81649 h -2.00504 v 2.63033 q 0,0.45475 0.0207,0.71313 0.0207,0.25322 0.14469,0.47543 0.11369,0.2067 0.31006,0.30489 0.20154,0.093 0.60978,0.093 0.23772,0 0.4961,-0.0672 0.25838,-0.0724 0.37207,-0.11886 h 0.0517 z" />
      <path
         id="path61"
         style="stroke-width:0.26458332"
         d="m 104.66079,285.57537 q 0,1.41077 -0.72347,2.22726 -0.72347,0.81649 -1.93786,0.81649 -1.22473,0 -1.9482,-0.81649 -0.718307,-0.81649 -0.718307,-2.22726 0,-1.41076 0.718307,-2.22725 0.72347,-0.82166 1.9482,-0.82166 1.21439,0 1.93786,0.82166 0.72347,0.81649 0.72347,2.22725 z m -1.00252,0 q 0,-1.12137 -0.43925,-1.66398 -0.43925,-0.54777 -1.21956,-0.54777 -0.79065,0 -1.2299,0.54777 -0.43408,0.54261 -0.43408,1.66398 0,1.08521 0.43925,1.64848 0.43924,0.55811 1.22473,0.55811 0.77514,0 1.21439,-0.55294 0.44442,-0.55811 0.44442,-1.65365 z" />
      <path
         id="path63"
         style="stroke-width:0.26458332"
         d="m 114.53616,288.45892 h -4.16512 v -0.78548 h 1.60197 v -5.15731 h -1.60197 v -0.7028 q 0.32556,0 0.69763,-0.0517 0.37207,-0.0568 0.56327,-0.16019 0.23772,-0.12919 0.37207,-0.32556 0.13953,-0.20154 0.1602,-0.53744 h 0.80099 v 6.93498 h 1.57096 z" />
    </g>
    <g
       transform="translate(19.699575,158.6177)"
       id="camasdgsdfdf">
      <rect
         style="fill:#aaeeff;fill-opacity:1;stroke-width:0.30160192"
         id="rect22"
         width="44.855141"
         height="70.693359"
         x="27.491861"
         y="12.986326" />
      <rect
         style="fill:#2ad4ff;fill-opacity:1;stroke-width:0.26458332"
         id="rect24"
         width="44.855145"
         height="55.397133"
         x="27.491861"
         y="28.282549" />
    </g>
    <path
       d="m 152.92144,297 a 31.522625,31.522625 0 0 1 31.52262,-31.52262 l 0,31.52262 z"
       id="portaxdvdfsdf"
       style="fill:#bcd35f"
       class="touchable" />
    <rect
       y="171.32292"
       x="0.062535256"
       height="87.436523"
       width="23.357748"
       id="rect30-3"
       style="fill:#ff9955;fill-opacity:1;stroke-width:0.26458332" />
    <ellipse
       class="touchable"
       ry="7.5447588"
       rx="7.4414062"
       cy="183.41521"
       cx="11.638057"
       id="abajoursdfdfsdf"
       style="fill:#ff0000" />
    <g
       id="g230">
      <rect
         style="fill:#ffeeaa;fill-opacity:1;stroke-width:0.19967324"
         id="rect22-6"
         width="31.41927"
         height="44.235027"
         x="108.06628"
         y="171.32292" />
      <rect
         style="fill:#ffd42a;fill-opacity:1;stroke-width:0.17516536"
         id="rect24-9"
         width="31.419271"
         height="34.663704"
         x="108.06628"
         y="180.89424" />
    </g>
    <ellipse
       class="touchable"
       ry="3.562803"
       rx="3.5139973"
       cy="183.41521"
       cx="11.638057"
       id="abajour"
       style="fill:#000000;fill-opacity:1;stroke-width:0.47222221" />
    <ellipse
       class="touchable"
       ry="3.562803"
       rx="3.5139973"
       cy="193.44043"
       cx="123.77592"
       id="minicama"
       style="    " />
    <ellipse
       class="touchable"
       ry="3.562803"
       rx="3.5139973"
       cy="206.95071"
       cx="69.619003"
       id="cama"
       style="    " />
    <ellipse
       class="touchable"
       ry="3.562803"
       rx="3.5139973"
       cy="285.21777"
       cx="172.45511"
       id="porta"
       style="    " />
    <rect
       y="171.32294"
       x="160.87959"
       height="87.436523"
       width="23.357748"
       id="rect30-3-8"
       style="fill:#803300;fill-opacity:1;stroke-width:0.26458332" />
    <ellipse
       class="touchable"
       ry="3.562803"
       rx="3.5139973"
       cy="215.0412"
       cx="172.55847"
       id="guarda-roupa"
       style="    " />
  </g>
</svg>
